<svg height="512pt" viewBox="-16 0 512 512" width="512pt" xmlns="http://www.w3.org/2000/svg"><path d="m351.285156 0h-261.285156v213.476562c-.355469.070313-.707031.132813-1.0625.207032-27.289062 5.722656-50.0625 27.703125-56.664062 54.703125-5.699219 23.308593-.472657 47.148437 14.335937 65.417969 14.246094 17.5625 13.359375 42.988281 13.390625 43.195312 0 24.8125-20.1875 45-45 45h-15v90h480v-381.140625zm8.714844 51.640625 69.207031 70.359375h-69.207031zm-290.085938 263.265625c-8.984374-11.078125-12-25.066406-8.5-39.394531 3.917969-16.019531 17.453126-29.066407 33.679688-32.464844 29.589844-6.207031 54.90625 16.160156 54.90625 43.953125 0 9.117188-2.761719 17.882812-7.984375 25.351562-24.175781 34.546876-21.859375 63.730469-22.015625 64.648438 0 16.871094 5.601562 32.457031 15.039062 45h-60.078124c9.4375-12.542969 15.039062-28.128906 15.039062-45-.179688-1.167969 2.21875-34.582031-20.085938-62.09375zm110.085938 167.09375h-150v-30h150zm30 0v-60h-15c-24.8125 0-45-20.1875-45-45 .269531-1.523438-2.363281-20.355469 16.59375-47.449219 8.769531-12.535156 13.40625-27.25 13.40625-42.550781 0-36.359375-25.746094-66.511719-60-73.464844v-183.535156h210v122h120v330zm0 0"/><path d="m330 272c-49.625 0-90 40.375-90 90s40.375 90 90 90 90-40.375 90-90-40.375-90-90-90zm0 150c-33.085938 0-60-26.914062-60-60s26.914062-60 60-60 60 26.914062 60 60-26.914062 60-60 60zm0 0"/><path d="m150 92h150v30h-150zm0 0"/><path d="m150 152h150v30h-150zm0 0"/><path d="m210 212h210v30h-210zm0 0"/></svg>